<svg width="41" height="41" viewBox="0 0 41 41" fill="none" xmlns="http://www.w3.org/2000/svg">
<g clip-path="url(#clip0_2_29)">
<path d="M11.5364 23.0625C12.5558 23.0625 13.5335 22.6575 14.2543 21.9367C14.9752 21.2158 15.3801 20.2382 15.3801 19.2188C15.3801 18.1993 14.9752 17.2217 14.2543 16.5008C13.5335 15.78 12.5558 15.375 11.5364 15.375C10.517 15.375 9.53928 15.78 8.81843 16.5008C8.09759 17.2217 7.69263 18.1993 7.69263 19.2188C7.69263 20.2382 8.09759 21.2158 8.81843 21.9367C9.53928 22.6575 10.517 23.0625 11.5364 23.0625Z" fill="black"/>
<path d="M35.8801 33.3125C35.8801 34.6717 35.3402 35.9753 34.3791 36.9364C33.4179 37.8975 32.1144 38.4375 30.7551 38.4375H5.13013C3.77089 38.4375 2.46733 37.8975 1.5062 36.9364C0.545081 35.9753 0.00512695 34.6717 0.00512695 33.3125V12.8125C0.00512627 11.4542 0.544377 10.1514 1.50439 9.19039C2.46441 8.22941 3.76666 7.68886 5.125 7.6875C5.125 6.32827 5.66496 5.0247 6.62608 4.06358C7.5872 3.10245 8.89077 2.5625 10.25 2.5625H35.875C37.2342 2.5625 38.5378 3.10245 39.4989 4.06358C40.46 5.0247 41 6.32827 41 7.6875V28.1875C41 29.5458 40.4608 30.8486 39.5007 31.8096C38.5407 32.7706 37.2385 33.3111 35.8801 33.3125ZM35.875 5.125H10.25C9.57038 5.125 8.9186 5.39498 8.43804 5.87554C7.95748 6.3561 7.6875 7.00788 7.6875 7.6875H30.7551C32.1144 7.6875 33.4179 8.22745 34.3791 9.18858C35.3402 10.1497 35.8801 11.4533 35.8801 12.8125V30.75C36.5589 30.7486 37.2093 30.4781 37.6888 29.9977C38.1682 29.5172 38.4375 28.8662 38.4375 28.1875V7.6875C38.4375 7.00788 38.1675 6.3561 37.687 5.87554C37.2064 5.39498 36.5546 5.125 35.875 5.125ZM5.13013 10.25C4.45051 10.25 3.79873 10.52 3.31817 11.0005C2.8376 11.4811 2.56763 12.1329 2.56763 12.8125V33.3125L9.348 27.2804C9.55744 27.0717 9.83261 26.9419 10.1268 26.9129C10.4211 26.884 10.7163 26.9577 10.9624 27.1215L17.7786 31.6648L27.2855 22.1579C27.4755 21.9677 27.7206 21.8421 27.9859 21.7989C28.2513 21.7557 28.5235 21.797 28.7641 21.9171L33.3176 26.9062V12.8125C33.3176 12.1329 33.0476 11.4811 32.5671 11.0005C32.0865 10.52 31.4347 10.25 30.7551 10.25H5.13013Z" fill="black"/>
</g>
<defs>
<clipPath id="clip0_2_29">
<rect width="41" height="41" fill="white"/>
</clipPath>
</defs>
</svg>
