<svg width="41" height="41" viewBox="0 0 41 41" fill="none" xmlns="http://www.w3.org/2000/svg">
<g clip-path="url(#clip0_2_52)">
<path d="M0.00209427 21.7725C0.0331726 20.7712 0.456036 19.8221 1.17972 19.1293L16.0501 4.64293C16.2731 4.42043 16.5379 4.24414 16.8292 4.12416C17.1205 4.00418 17.4327 3.94288 17.7477 3.94377H20.4017L2.96434 20.9684L2.95697 20.9754C2.71389 21.2059 2.57136 21.5228 2.56025 21.8576C2.54915 22.1924 2.67036 22.5181 2.89764 22.7641L15.4218 36.6461L13.6639 38.3562L1.00523 24.4919C0.326923 23.7522 -0.0333748 22.7755 0.00209427 21.7725Z" fill="black"/>
<path d="M6.81465 22.675C6.69242 22.3386 6.66687 21.9747 6.74091 21.6245C6.81495 21.2743 6.9856 20.9519 7.23354 20.6937C7.24202 20.6848 7.24955 20.6752 7.25804 20.6665L23.0379 4.62179L23.0454 4.61426C23.2828 4.37555 23.5652 4.1863 23.8763 4.05747C24.1873 3.92863 24.5208 3.86277 24.8575 3.86369H36.1798C37.118 3.86475 38.0176 4.23794 38.681 4.9014C39.3445 5.56486 39.7177 6.46439 39.7188 7.40266V18.7017C39.7182 19.0507 39.6466 19.396 39.5083 19.7165C39.37 20.037 39.1679 20.326 38.9144 20.5659L22.0723 36.5975L22.0662 36.6034C21.7111 36.939 21.2408 37.1255 20.7522 37.1245C20.7283 37.1245 20.7043 37.1241 20.6801 37.1232C20.4964 37.1165 20.3147 37.0837 20.1403 37.0257C19.8321 36.923 19.5552 36.7434 19.3357 36.5038L7.20839 23.3213C7.03566 23.1341 6.90182 22.9144 6.81465 22.675ZM20.7803 34.2894L37.1501 18.7072L37.1562 18.7014V7.40266C37.156 7.14377 37.053 6.89558 36.8699 6.71252C36.6869 6.52946 36.4387 6.42648 36.1798 6.42619H24.8575L9.50656 22.0348L20.7803 34.2894Z" fill="black"/>
<path d="M29.7891 8.96875C30.6126 8.96875 31.4177 9.21297 32.1025 9.67052C32.7873 10.1281 33.321 10.7784 33.6362 11.5393C33.9513 12.3002 34.0338 13.1374 33.8731 13.9452C33.7124 14.7529 33.3159 15.4949 32.7335 16.0772C32.1511 16.6596 31.4092 17.0562 30.6014 17.2169C29.7937 17.3775 28.9564 17.2951 28.1955 16.9799C27.4347 16.6647 26.7843 16.131 26.3268 15.4462C25.8692 14.7615 25.625 13.9564 25.625 13.1328C25.6262 12.0288 26.0654 10.9704 26.846 10.1898C27.6266 9.40911 28.6851 8.97 29.7891 8.96875ZM29.7891 14.7344C30.1058 14.7344 30.4155 14.6404 30.6788 14.4645C30.9422 14.2885 31.1475 14.0384 31.2687 13.7457C31.3899 13.4531 31.4216 13.131 31.3598 12.8204C31.2981 12.5097 31.1455 12.2243 30.9215 12.0003C30.6976 11.7764 30.4122 11.6238 30.1015 11.562C29.7908 11.5002 29.4688 11.5319 29.1762 11.6532C28.8835 11.7744 28.6334 11.9797 28.4574 12.243C28.2814 12.5064 28.1875 12.8161 28.1875 13.1328C28.188 13.5574 28.3569 13.9645 28.6571 14.2647C28.9574 14.565 29.3644 14.7339 29.7891 14.7344Z" fill="black"/>
</g>
<defs>
<clipPath id="clip0_2_52">
<rect width="41" height="41" fill="white" transform="matrix(-1 0 0 1 41 0)"/>
</clipPath>
</defs>
</svg>
