<svg width="41" height="41" viewBox="0 0 41 41" fill="none" xmlns="http://www.w3.org/2000/svg">
<path d="M6.83333 13.6667H3.41667V34.1667C3.41667 35.0728 3.77664 35.9419 4.41739 36.5826C5.05814 37.2234 5.92718 37.5833 6.83333 37.5833H27.3333V34.1667H6.83333V13.6667Z" fill="black"/>
<path d="M34.1667 3.41666H13.6667C12.7605 3.41666 11.8915 3.77663 11.2507 4.41738C10.61 5.05813 10.25 5.92717 10.25 6.83333V27.3333C10.25 28.2395 10.61 29.1085 11.2507 29.7493C11.8915 30.39 12.7605 30.75 13.6667 30.75H34.1667C35.0728 30.75 35.9419 30.39 36.5826 29.7493C37.2234 29.1085 37.5833 28.2395 37.5833 27.3333V6.83333C37.5833 5.92717 37.2234 5.05813 36.5826 4.41738C35.9419 3.77663 35.0728 3.41666 34.1667 3.41666ZM18.7917 23.9167V10.25L30.75 17.0833L18.7917 23.9167Z" fill="black"/>
</svg>
